<mxfile host="app.diagrams.net" modified="2023-12-25T03:16:21.518Z" agent="Mozilla/5.0 (Windows NT 10.0; Win64; x64) AppleWebKit/537.36 (KHTML, like Gecko) Chrome/103.0.0.0 Safari/537.36" etag="nMdRFbRh4ZEUlGvY5mBb" version="22.1.11" type="github">
  <diagram id="prtHgNgQTEPvFCAcTncT" name="Page-1">
    <mxGraphModel dx="2074" dy="1124" grid="1" gridSize="10" guides="1" tooltips="1" connect="1" arrows="1" fold="1" page="1" pageScale="1" pageWidth="827" pageHeight="1169" math="0" shadow="0">
      <root>
        <mxCell id="0" />
        <mxCell id="1" parent="0" />
        <mxCell id="dNxyNK7c78bLwvsdeMH5-11" value="Orgchart" style="swimlane;html=1;startSize=20;horizontal=1;containerType=tree;glass=0;" parent="1" vertex="1">
          <mxGeometry x="40" y="80" width="710" height="290" as="geometry" />
        </mxCell>
        <UserObject label="%name%&lt;br&gt;&lt;i style=&quot;color: gray&quot;&gt;%position%&lt;/i&gt;&lt;br&gt;&lt;a href=&quot;mailto:%email%&quot;&gt;Email&lt;/a&gt;" name="Tessa Miller" position="CFO" location="Office 1" email="me@example.com" placeholders="1" link="https://www.draw.io" id="dNxyNK7c78bLwvsdeMH5-12">
          <mxCell style="label;image=https://cdn3.iconfinder.com/data/icons/user-avatars-1/512/users-3-128.png;whiteSpace=wrap;html=1;rounded=0;glass=0;treeMoving=1;treeFolding=1;" parent="dNxyNK7c78bLwvsdeMH5-11" vertex="1">
            <mxGeometry x="260" y="50" width="180" height="70" as="geometry" />
          </mxCell>
        </UserObject>
        <mxCell id="dNxyNK7c78bLwvsdeMH5-13" value="" style="endArrow=blockThin;endFill=1;fontSize=11;edgeStyle=elbowEdgeStyle;elbow=vertical;rounded=0;" parent="dNxyNK7c78bLwvsdeMH5-11" source="dNxyNK7c78bLwvsdeMH5-12" target="dNxyNK7c78bLwvsdeMH5-14" edge="1">
          <mxGeometry relative="1" as="geometry" />
        </mxCell>
        <UserObject label="%name%&lt;br&gt;&lt;i style=&quot;color: gray&quot;&gt;%position%&lt;/i&gt;&lt;br&gt;&lt;a href=&quot;mailto:%email%&quot;&gt;Email&lt;/a&gt;" name="Edward Morrison" position="Brand Manager" location="Office 2" email="me@example.com" placeholders="1" link="https://www.draw.io" id="dNxyNK7c78bLwvsdeMH5-14">
          <mxCell style="label;image=https://cdn3.iconfinder.com/data/icons/user-avatars-1/512/users-10-3-128.png;whiteSpace=wrap;html=1;rounded=0;glass=0;treeFolding=1;treeMoving=1;" parent="dNxyNK7c78bLwvsdeMH5-11" vertex="1">
            <mxGeometry x="40" y="180" width="180" height="80" as="geometry" />
          </mxCell>
        </UserObject>
        <mxCell id="dNxyNK7c78bLwvsdeMH5-15" value="" style="endArrow=blockThin;endFill=1;fontSize=11;edgeStyle=elbowEdgeStyle;elbow=vertical;rounded=0;" parent="dNxyNK7c78bLwvsdeMH5-11" source="dNxyNK7c78bLwvsdeMH5-12" target="dNxyNK7c78bLwvsdeMH5-16" edge="1">
          <mxGeometry relative="1" as="geometry" />
        </mxCell>
        <UserObject label="%name%&lt;br&gt;&lt;i style=&quot;color: gray&quot;&gt;%position%&lt;/i&gt;&lt;br&gt;&lt;a href=&quot;mailto:%email%&quot;&gt;Email&lt;/a&gt;" name="Evan Valet" position="HR Director" location="Office 4" email="me@example.com" placeholders="1" link="https://www.draw.io" id="dNxyNK7c78bLwvsdeMH5-16">
          <mxCell style="label;image=https://cdn3.iconfinder.com/data/icons/user-avatars-1/512/users-9-2-128.png;whiteSpace=wrap;html=1;rounded=0;glass=0;treeFolding=1;treeMoving=1;" parent="dNxyNK7c78bLwvsdeMH5-11" vertex="1">
            <mxGeometry x="260" y="180" width="180" height="80" as="geometry" />
          </mxCell>
        </UserObject>
        <mxCell id="dNxyNK7c78bLwvsdeMH5-17" value="" style="endArrow=blockThin;endFill=1;fontSize=11;edgeStyle=elbowEdgeStyle;elbow=vertical;rounded=0;" parent="dNxyNK7c78bLwvsdeMH5-11" source="dNxyNK7c78bLwvsdeMH5-12" target="dNxyNK7c78bLwvsdeMH5-18" edge="1">
          <mxGeometry relative="1" as="geometry" />
        </mxCell>
        <UserObject label="%name%&lt;br&gt;&lt;i style=&quot;color: gray&quot;&gt;%position%&lt;/i&gt;&lt;br&gt;&lt;a href=&quot;mailto:%email%&quot;&gt;Email&lt;/a&gt;" name="Alison Donovan" position="System Admin" location="Office 3" email="me@example.com" placeholders="1" link="https://www.draw.io" id="dNxyNK7c78bLwvsdeMH5-18">
          <mxCell style="label;image=https://cdn3.iconfinder.com/data/icons/user-avatars-1/512/users-2-128.png;whiteSpace=wrap;html=1;rounded=0;glass=0;" parent="dNxyNK7c78bLwvsdeMH5-11" vertex="1">
            <mxGeometry x="490" y="180" width="180" height="80" as="geometry" />
          </mxCell>
        </UserObject>
        <mxCell id="rrk-t0MwAY4mqc4zjHhk-1" value="&lt;b&gt;Core, Renderer, RHI...&lt;/b&gt;" style="rounded=1;whiteSpace=wrap;html=1;fillColor=#d5e8d4;strokeColor=#82b366;" parent="1" vertex="1">
          <mxGeometry x="26" y="1037" width="290" height="50" as="geometry" />
        </mxCell>
        <mxCell id="rrk-t0MwAY4mqc4zjHhk-2" value="&lt;font style=&quot;font-size: 14px;&quot;&gt;&lt;b&gt;Engine&lt;/b&gt;&lt;/font&gt;" style="rounded=0;whiteSpace=wrap;html=1;fillColor=#dae8fc;strokeColor=#6c8ebf;" parent="1" vertex="1">
          <mxGeometry x="21" y="1094" width="470" height="60" as="geometry" />
        </mxCell>
        <mxCell id="rrk-t0MwAY4mqc4zjHhk-3" value="PostProcess(DOF，LensFlares...)&lt;b&gt;&lt;br&gt;RDG&lt;/b&gt;" style="rounded=1;whiteSpace=wrap;html=1;fillColor=#fff2cc;strokeColor=#d6b656;" parent="1" vertex="1">
          <mxGeometry x="26" y="970" width="230" height="60" as="geometry" />
        </mxCell>
        <mxCell id="rrk-t0MwAY4mqc4zjHhk-4" value="&lt;b&gt;Subsystem&lt;/b&gt;" style="whiteSpace=wrap;html=1;aspect=fixed;fillColor=#ffe6cc;strokeColor=#d79b00;" parent="1" vertex="1">
          <mxGeometry x="346" y="970" width="110" height="110" as="geometry" />
        </mxCell>
        <mxCell id="rrk-t0MwAY4mqc4zjHhk-5" value="External Shaders，Custom Passes，Delegates...&lt;br&gt;&lt;b&gt;Custom Plugin&lt;/b&gt;" style="rounded=1;whiteSpace=wrap;html=1;fillColor=#fad9d5;strokeColor=#ae4132;" parent="1" vertex="1">
          <mxGeometry x="20" y="880" width="470" height="60" as="geometry" />
        </mxCell>
        <mxCell id="rrk-t0MwAY4mqc4zjHhk-7" value="" style="endArrow=classic;html=1;rounded=0;" parent="1" edge="1">
          <mxGeometry width="50" height="50" relative="1" as="geometry">
            <mxPoint x="176" y="970" as="sourcePoint" />
            <mxPoint x="176" y="940" as="targetPoint" />
          </mxGeometry>
        </mxCell>
        <mxCell id="rrk-t0MwAY4mqc4zjHhk-8" value="" style="endArrow=classic;html=1;rounded=0;" parent="1" target="rrk-t0MwAY4mqc4zjHhk-3" edge="1">
          <mxGeometry width="50" height="50" relative="1" as="geometry">
            <mxPoint x="126" y="940" as="sourcePoint" />
            <mxPoint x="176" y="890" as="targetPoint" />
            <Array as="points">
              <mxPoint x="126" y="970" />
            </Array>
          </mxGeometry>
        </mxCell>
        <mxCell id="rrk-t0MwAY4mqc4zjHhk-10" value="" style="endArrow=classic;html=1;rounded=0;" parent="1" edge="1">
          <mxGeometry width="50" height="50" relative="1" as="geometry">
            <mxPoint x="296" y="945" as="sourcePoint" />
            <mxPoint x="296" y="1030" as="targetPoint" />
            <Array as="points">
              <mxPoint x="296" y="1030" />
            </Array>
          </mxGeometry>
        </mxCell>
        <mxCell id="rrk-t0MwAY4mqc4zjHhk-11" value="" style="endArrow=classic;html=1;rounded=0;" parent="1" edge="1">
          <mxGeometry width="50" height="50" relative="1" as="geometry">
            <mxPoint x="401" y="940" as="sourcePoint" />
            <mxPoint x="401" y="970" as="targetPoint" />
          </mxGeometry>
        </mxCell>
        <mxCell id="NkCHQ_PxM2jNgCrOMfvo-1" value="Downsample+Threshold" style="rounded=1;whiteSpace=wrap;html=1;fillColor=#fff2cc;strokeColor=#d6b656;" parent="1" vertex="1">
          <mxGeometry x="26" y="410" width="180" height="60" as="geometry" />
        </mxCell>
        <mxCell id="NkCHQ_PxM2jNgCrOMfvo-2" value="" style="endArrow=classic;html=1;rounded=0;entryX=0;entryY=0.5;entryDx=0;entryDy=0;" parent="1" target="NkCHQ_PxM2jNgCrOMfvo-3" edge="1">
          <mxGeometry width="50" height="50" relative="1" as="geometry">
            <mxPoint x="206" y="440" as="sourcePoint" />
            <mxPoint x="256" y="390" as="targetPoint" />
          </mxGeometry>
        </mxCell>
        <mxCell id="NkCHQ_PxM2jNgCrOMfvo-3" value="Ghost+Halo+Chroma" style="rounded=1;whiteSpace=wrap;html=1;fillColor=#fff2cc;strokeColor=#d6b656;" parent="1" vertex="1">
          <mxGeometry x="246" y="410" width="151" height="60" as="geometry" />
        </mxCell>
        <mxCell id="NkCHQ_PxM2jNgCrOMfvo-4" value="Mix Bloom" style="rounded=1;whiteSpace=wrap;html=1;fillColor=#fff2cc;strokeColor=#d6b656;" parent="1" vertex="1">
          <mxGeometry x="435" y="410" width="151" height="60" as="geometry" />
        </mxCell>
        <mxCell id="NkCHQ_PxM2jNgCrOMfvo-6" value="" style="endArrow=classic;html=1;rounded=0;exitX=1;exitY=0.5;exitDx=0;exitDy=0;" parent="1" source="NkCHQ_PxM2jNgCrOMfvo-3" target="NkCHQ_PxM2jNgCrOMfvo-4" edge="1">
          <mxGeometry width="50" height="50" relative="1" as="geometry">
            <mxPoint x="216" y="450" as="sourcePoint" />
            <mxPoint x="266" y="450" as="targetPoint" />
          </mxGeometry>
        </mxCell>
        <mxCell id="0FHECyoi1kmDxe4JBDvZ-1" value="SceneColor&lt;br&gt;&amp;amp;&lt;br&gt;Depth" style="ellipse;whiteSpace=wrap;html=1;fillColor=#d5e8d4;strokeColor=#82b366;" vertex="1" parent="1">
          <mxGeometry x="21" y="585" width="120" height="80" as="geometry" />
        </mxCell>
        <mxCell id="0FHECyoi1kmDxe4JBDvZ-2" value="" style="endArrow=classic;html=1;rounded=0;" edge="1" parent="1">
          <mxGeometry width="50" height="50" relative="1" as="geometry">
            <mxPoint x="140" y="630" as="sourcePoint" />
            <mxPoint x="170" y="630" as="targetPoint" />
          </mxGeometry>
        </mxCell>
        <mxCell id="0FHECyoi1kmDxe4JBDvZ-3" value="Downsample&lt;br&gt;&amp;amp;&lt;br&gt;Coc compute" style="rounded=1;whiteSpace=wrap;html=1;fillColor=#fff2cc;strokeColor=#d6b656;" vertex="1" parent="1">
          <mxGeometry x="179.5" y="595" width="151" height="60" as="geometry" />
        </mxCell>
        <mxCell id="0FHECyoi1kmDxe4JBDvZ-4" value="Downsample&lt;br&gt;&amp;amp;&lt;br&gt;Coc compute" style="rounded=1;whiteSpace=wrap;html=1;fillColor=#fff2cc;strokeColor=#d6b656;" vertex="1" parent="1">
          <mxGeometry x="370" y="540" width="151" height="60" as="geometry" />
        </mxCell>
      </root>
    </mxGraphModel>
  </diagram>
</mxfile>
